<svg width="15" height="15" viewBox="0 0 15 15" fill="none" xmlns="http://www.w3.org/2000/svg">
<path d="M13.875 0H1.125C0.5 0 0 0.5 0 1.0625V13.875C0 14.4375 0.5 14.9375 1.125 14.9375H13.875C14.5 14.9375 15 14.4375 15 13.875V1.0625C15 0.5 14.5 0 13.875 0ZM4.4375 12.75H2.25V5.625H4.4375V12.75ZM3.375 4.625C2.6875 4.625 2.0625 4.0625 2.0625 3.3125C2.0625 2.5625 2.625 2 3.375 2C4.0625 2 4.6875 2.5625 4.6875 3.3125C4.6875 4.0625 4.0625 4.625 3.375 4.625ZM12.8125 12.6875H10.625V9.1875C10.625 8.375 10.625 7.25 9.4375 7.25C8.25 7.25 8.125 8.1875 8.125 9.0625V12.625H5.9375V5.625H8V6.5625H8.0625C8.375 6 9.125 5.375 10.1875 5.375C12.4375 5.375 12.875 6.875 12.875 8.8125V12.6875H12.8125Z" fill="#24138E"/>
</svg>
